PathFileType	4	(X/Y/Z)	Walk1.trc
DataRate	CameraRate	NumFrames	NumMarkers	Units	OrigDataRate	OrigDataStartFrame	OrigNumFrames
200.000000	200.000000	5	59	mm	200.000000	512	593
Frame#	Times		CLAV		STRN		LASI		RASI		RACR1		RFA1		RWRU		LACR1		LUA1		LFA1		LCAR		RTH2		LTH3		LTH2		LLFC		LTB3		LTB4		LToe		LTB1		RUA1		RElbow		RTH4		LTH4		LMMAL		LMT1		LTB2		LMT5		LTH1		RTH1		RCAR		LLMAL		RBack		C7		RFHD		RTH3		LFHD		RPSI		RWRR		T10		LPSI		RBHD		RLFC		LElbow		RTB1		LWRU		RElbowM		RTB4		RTB2		RToe		LBHD		LWRR		RTB3		RMT1		LElbowM		RCAL		RMT5		RLMAL		RMMAL		LCAL
			X1	Y1	Z1	X2	Y2	Z2	X3	Y3	Z3	X4	Y4	Z4	X5	Y5	Z5	X6	Y6	Z6	X7	Y7	Z7	X8	Y8	Z8	X9	Y9	Z9	X10	Y10	Z10	X11	Y11	Z11	X12	Y12	Z12	X13	Y13	Z13	X14	Y14	Z14	X15	Y15	Z15	X16	Y16	Z16	X17	Y17	Z17	X18	Y18	Z18	X19	Y19	Z19	X20	Y20	Z20	X21	Y21	Z21	X22	Y22	Z22	X23	Y23	Z23	X24	Y24	Z24	X25	Y25	Z25	X26	Y26	Z26	X27	Y27	Z27	X28	Y28	Z28	X29	Y29	Z29	X30	Y30	Z30	X31	Y31	Z31	X32	Y32	Z32	X33	Y33	Z33	X34	Y34	Z34	X35	Y35	Z35	X36	Y36	Z36	X37	Y37	Z37	X38	Y38	Z38	X39	Y39	Z39	X40	Y40	Z40	X41	Y41	Z41	X42	Y42	Z42	X43	Y43	Z43	X44	Y44	Z44	X45	Y45	Z45	X46	Y46	Z46	X47	Y47	Z47	X48	Y48	Z48	X49	Y49	Z49	X50	Y50	Z50	X51	Y51	Z51	X52	Y52	Z52	X53	Y53	Z53	X54	Y54	Z54	X55	Y55	Z55	X56	Y56	Z56	X57	Y57	Z57	X58	Y58	Z58	X59	Y59	Z59

512	2.56	612.45	1327.6	-5.2914	689.46	1104.9	2.5615	639.93	928.62	-116.63	633.06	923.96	140.68	566.71	1343.9	168.15	643.81	904.43	259.5	647.26	791.63	268.92	545.56	1339.2	-172.73	490.79	1135.2	-211.06	469.2	893.74	-233.05	445.64	732.97	-238.27	599.02	634	132.13	636.88	564.07	-125.22	671.46	673.24	-113.71	660.92	457.92	-112.84	683.03	174.77	-31.775	691.1	266.6	-35.895	837.77	28.94	-62.985	695.13	361.9	-32.425	561.3	1135.3	236.06	548.37	1028	264.37	534.6	625.96	163.13	605.62	646.09	-144.17	658.76	73.562	2.5359	791.99	37.293	-36.708	668.29	269.46	-103.52	752.5	22.205	-114.91	574.17	736.22	-162.72	537.54	719.86	182.02	704.17	769.5	263.2	644.07	61.179	-78.203	444.96	1303.9	104.72	487.2	1406.9	2.492	669.62	1566.7	37.936	533.52	533.34	149.61	661.18	1565.1	-34.629	418.27	960.61	76.444	692.13	814.5	214.73	447.39	1122.2	11.912	419.35	962.09	-39.577	497.64	1538.8	78.153	510.97	437.84	135.67	447.87	1022.4	-215	453.22	325.2	72.431	409.05	786.28	-240.86	531.77	1002.9	182.51	375.03	275.01	76.057	370.14	292.24	145.08	262.56	27.161	97.578	489.76	1546.4	-49.162	466.24	773.32	-197.31	298.08	223.86	78.853	240.28	49.75	67.493	436.58	1012.9	-145.25	139.84	209.45	84.23	200.94	58.887	143.22	188.5	190.28	130.81	214.29	184.7	54.307	595.14	28.385	-24.964
513	2.565	618.01	1328.3	-5.7618	694.91	1105.6	2.1236	645.33	929.37	-117.18	638.95	925.04	140.09	572.17	1344.7	167.61	646.89	904.38	259.19	649.26	791.58	268.89	551.36	1340	-173.24	497.42	1135.8	-211.72	476.74	894.22	-233.42	453.75	733.37	-238.51	607.66	635.22	132.14	640.61	563.94	-125.47	675.99	672.91	-114.56	664.2	457.73	-113.05	684	174.5	-31.74	692.9	266.28	-35.951	837.89	28.959	-63.215	697.77	361.54	-32.578	565.98	1135.9	235.41	552.38	1028.7	263.51	543.06	626.49	162.65	609.8	646.11	-144.55	658.82	73.514	2.6127	791.94	37.347	-36.704	670.13	269.24	-103.54	752.49	22.278	-114.87	578.83	736.37	-163.21	544.81	720.47	181.43	705.96	768.8	263.31	644.17	61.182	-78.162	450.44	1304.7	104.12	492.78	1407.6	1.904	675.52	1567.2	37.323	543.27	533.81	149.42	667.02	1565.7	-35.229	423.76	961.16	75.927	694.54	813.88	214.73	452.9	1122.9	11.335	424.86	962.78	-40.054	503.53	1539.7	77.684	522.07	438.53	135.68	454.83	1022.9	-215.81	464.04	326.46	72.513	416.99	786.55	-241.43	536.29	1003.9	181.55	385.31	277.01	76.247	380.65	294.35	145.28	267.31	28.011	97.993	495.55	1547.3	-49.616	473.98	773.85	-197.53	307.89	226.6	79.119	246.57	51.869	68.131	443.13	1013.5	-146.05	149.64	214.5	84.45	207.08	62.312	143.04	197.88	194.29	131.2	223.82	188.26	54.697	595.13	28.382	-24.943
514	2.57	623.51	1329	-6.2107	700.32	1106.4	1.703	650.64	930.12	-117.75	644.77	926.15	139.6	577.56	1345.4	167.11	649.92	904.33	258.9	651.21	791.54	268.86	557.1	1340.9	-173.73	504.03	1136.5	-212.37	484.36	894.7	-233.79	461.99	733.76	-238.74	616.24	636.52	132.21	644.24	563.79	-125.72	680.43	672.56	-115.36	667.37	457.52	-113.24	684.94	174.24	-31.694	694.62	265.95	-35.989	838	28.972	-63.434	700.3	361.17	-32.709	570.57	1136.6	234.8	556.35	1029.4	262.67	551.46	627.14	162.23	613.9	646.11	-144.91	658.88	73.465	2.6884	791.89	37.393	-36.707	671.91	269.03	-103.55	752.49	22.339	-114.84	583.43	736.52	-163.66	552.03	721.16	180.89	707.7	768.11	263.4	644.28	61.181	-78.12	455.87	1305.5	103.52	498.32	1408.4	1.3453	681.4	1567.8	36.747	552.93	534.39	149.25	672.82	1566.2	-35.79	429.24	961.74	75.404	696.89	813.27	214.73	458.4	1123.6	10.76	430.35	963.48	-40.531	509.39	1540.5	77.26	533.14	439.34	135.68	461.82	1023.4	-216.63	474.92	327.8	72.55	425.05	786.79	-242.01	540.76	1004.8	180.64	395.71	279.01	76.356	391.24	296.44	145.4	272.98	29.077	98.46	501.3	1548.1	-50.024	481.82	774.39	-197.73	317.86	229.28	79.28	253.63	54.094	68.756	449.72	1014.1	-146.85	159.59	219.16	84.512	213.88	65.729	142.85	207.45	198.13	131.45	233.56	191.67	54.942	595.13	28.38	-24.921
515	2.575	628.97	1329.7	-6.6403	705.69	1107.1	1.2969	655.86	930.86	-118.34	650.5	927.28	139.22	582.89	1346.2	166.65	652.9	904.29	258.63	653.14	791.51	268.84	562.78	1341.7	-174.19	510.64	1137.1	-213.02	492.05	895.18	-234.16	470.36	734.15	-238.97	624.76	637.9	132.33	647.8	563.63	-125.95	684.79	672.17	-116.08	670.44	457.3	-113.41	685.85	173.97	-31.635	696.26	265.61	-36.009	838.09	28.979	-63.639	702.73	360.79	-32.815	575.1	1137.3	234.24	560.29	1030.1	261.86	559.78	627.9	161.87	617.95	646.11	-145.25	658.93	73.417	2.7644	791.86	37.431	-36.714	673.65	268.8	-103.55	752.49	22.39	-114.81	587.98	736.66	-164.08	559.2	721.92	180.39	709.4	767.43	263.48	644.39	61.177	-78.075	461.24	1306.2	102.91	503.81	1409.1	0.81603	687.26	1568.3	36.208	562.49	535.08	149.1	678.6	1566.8	-36.314	434.71	962.36	74.881	699.18	812.66	214.73	463.89	1124.4	10.185	435.82	964.17	-41.003	515.23	1541.4	76.879	544.17	440.28	135.68	468.85	1023.9	-217.46	485.83	329.21	72.545	433.24	787.02	-242.62	545.17	1005.7	179.76	406.19	281.02	76.384	401.9	298.51	145.45	279.61	30.362	98.963	507.03	1549	-50.387	489.76	774.92	-197.93	327.97	231.9	79.336	261.49	56.404	69.356	456.32	1014.6	-147.67	169.66	223.43	84.423	221.39	69.098	142.64	217.2	201.77	131.56	243.48	194.94	55.042	595.13	28.382	-24.898
516	2.58	634.39	1330.5	-7.0527	711.03	1107.8	0.90296	661.01	931.6	-118.96	656.14	928.43	138.93	588.16	1346.9	166.23	655.84	904.24	258.38	655.02	791.49	268.82	568.4	1342.5	-174.63	517.23	1137.7	-213.65	499.82	895.65	-234.52	478.86	734.53	-239.19	633.2	639.35	132.49	651.3	563.47	-126.16	689.08	671.78	-116.72	673.41	457.06	-113.57	686.71	173.71	-31.563	697.84	265.28	-36.007	838.19	28.98	-63.828	705.05	360.41	-32.894	579.56	1137.9	233.71	564.2	1030.7	261.09	568.03	628.76	161.57	621.94	646.11	-145.56	658.98	73.368	2.8418	791.83	37.46	-36.723	675.35	268.57	-103.54	752.5	22.431	-114.78	592.49	736.81	-164.46	566.31	722.76	179.93	711.06	766.76	263.54	644.5	61.171	-78.027	466.57	1306.9	102.31	509.27	1409.9	0.31609	693.09	1568.8	35.708	571.94	535.88	148.97	684.36	1567.3	-36.799	440.17	963.02	74.363	701.42	812.07	214.72	469.38	1125.2	9.6099	441.26	964.87	-41.467	521.05	1542.3	76.541	555.13	441.35	135.67	475.91	1024.3	-218.3	496.77	330.69	72.496	441.55	787.23	-243.24	549.51	1006.6	178.92	416.76	283.02	76.335	412.6	300.57	145.43	287.26	31.852	99.486	512.73	1550	-50.707	497.79	775.45	-198.12	338.22	234.44	79.289	270.14	58.774	69.922	462.95	1015	-148.49	179.84	227.27	84.192	229.63	72.38	142.45	227.11	205.2	131.52	253.58	198.04	55	595.13	28.386	-24.873
